<svg xmlns="http://www.w3.org/2000/svg" fill="none" viewBox="0 0 83 92">
    <defs/>
    <g clip-path="url(#clip0)">
        <path fill="#9E6F00" d="M41.26 92c22.46-5.7 35.03-24.5 38.08-55.77.58-6.13.85-12.73.69-19.8A31.88 31.88 0 0168.46 2.05C60.83.69 51.05 0 41.26 0c-9.73 0-19.51.69-27.19 2.06A32.23 32.23 0 012.5 16.42c-.1 6.34.05 12.26.52 17.8C5.71 66.7 18.33 86.2 41.26 92z"/>
        <path fill="#A2A2A2" d="M15.02 3.17a161.13 161.13 0 0126.3-2.11c8.83 0 17.72.68 26.3 2.1 2.57 6.03 6.89 10.25 11.46 14.27.05 7.34-.26 14.15-1 20.49-3.31 28.94-14.83 47.32-36.76 52.55-21.94-5.23-33.5-23.6-36.82-52.55a179.4 179.4 0 01-1-20.5c4.57-4 8.89-8.28 11.52-14.25z"/>
        <path fill="url(#paint0_radial)" d="M16.49 5.02C24.43 3.7 32.85 3 41.32 3c8.46 0 16.83.69 24.77 2a52.1 52.1 0 0011.36 13.8c-.05 6.6-.37 12.98-1.1 18.95-3.05 25.4-12.79 44.47-35.09 51.18C18.86 82.23 9.13 63 6.18 37.39c-.68-5.91-1-12.15-1.05-18.64A51.02 51.02 0 0016.49 5.02z"/>
        <path fill="#3B3B3B" d="M17.6 6.18a147.2 147.2 0 0123.72-1.9c8 0 15.99.63 23.72 1.9 3.89 6.23 7.68 10.35 11.25 13.26.06 6.44-.31 12.56-1 18.37-3.15 25.78-13.83 44.53-33.92 49.97C21.49 82.38 10.8 64.06 7.5 38.87a152.85 152.85 0 01-1.16-19.49c3.58-2.85 7.36-7.02 11.25-13.2z"/>
        <path fill="url(#paint1_radial)" d="M41.32 81.44c0-.06 0-.06 0 0 15.04-5.5 24.5-16.74 27.5-35.65.9-5.76 1.21-12.25.9-19.54-4.1-2.59-6.73-6.08-8.89-10.67-4.16-1.1-11.84-1.64-19.51-1.64-7.68 0-15.36.58-19.52 1.64-2.15 4.6-4.78 8.08-8.89 10.67a96.16 96.16 0 00.9 19.54c2.94 18.85 12.46 30.1 27.5 35.65-.05-.06-.05-.06 0 0-.05-.06-.05-.06 0 0 0-.06 0-.06 0 0z"/>
        <path fill="#A2A2A2" d="M41.32 80.28c-.06 0-.06 0 0 0-.06 0-.06 0 0 0-14.05-5.44-23.57-16.17-26.4-34.7a89.06 89.06 0 01-.74-18.38 28.8 28.8 0 008.52-10.67c5.3-1 11.99-1.48 18.67-1.48 6.68 0 13.36.48 18.62 1.48A29.22 29.22 0 0068.5 27.2c.37 6.81.1 12.94-.74 18.38-2.89 18.53-12.41 29.26-26.45 34.7z"/>
        <path fill="url(#paint2_radial)" d="M9.5 54.5c-3.1-8.71-7-25.35 4.62-41.82-9.1 12.04-11.1 25.5-5.1 42.56C15.7 74.26 28.53 88.78 55.36 90.8c0-.59.05-1.11.05-1.7C29.32 87.47 17.86 76.17 9.5 54.5z"/>
        <path fill="url(#paint3_radial)" d="M73.08 54.5c3.1-8.71 7-25.35-4.62-41.82 9.04 12.04 11.04 25.5 5.05 42.56-6.68 19.02-19.52 33.54-46.34 35.55 0-.59-.06-1.11-.06-1.7 26.15-1.63 37.61-12.93 45.97-34.59z"/>
        <path fill="url(#paint4_radial)" d="M63.83 59.26c-2.16 4.85-5 8.92-8.47 12.25-2.21-2.11-3.42-6.29-3.63-12.41-.95-13.9-5.42-17.11-10.1-23.72C52.47 38.61 58 45.05 61.67 55.24a11.72 11.72 0 002.16 4.02z"/>
        <path fill="url(#paint5_radial)" d="M27.22 71.5a38.21 38.21 0 01-8.47-12.24c.95-1 1.68-2.49 2.21-4.02 3.63-10.2 9.15-16.63 19.99-19.86-4.68 6.6-9.15 9.83-10.15 23.66-.21 6.18-1.37 10.3-3.58 12.47z"/>
        <path fill="url(#paint6_radial)" d="M17.8 8.66c-.05-.37-.05-.63.06-.9.05-.26.16-.42.31-.58.1-.16.32-.2.53-.26.31-.05.58.05.79.26.2.21.37.58.42 1.11.05.48 0 .9-.16 1.22a.93.93 0 01-.68.47c-.32.05-.58-.05-.74-.26-.31-.21-.47-.58-.53-1.06zm.43-.1c.05.31.1.58.26.74.16.15.26.2.42.2.16-.05.31-.15.37-.31.1-.21.1-.48.05-.8-.05-.36-.1-.57-.26-.73-.1-.16-.27-.21-.42-.16-.16.05-.32.16-.37.32-.05.1-.1.37-.05.74zm2.47-.64l-.42.05v-.42-.53c.05-.15.1-.26.26-.31l.1.2-.15.17c-.06.05-.06.16-.06.26l.21-.05.06.63zm.58 1.64l-.06-.53.95-2.06-1 .1-.05-.52 1.52-.21.06.47-.95 2.17 1.2-.16.06.53-1.73.2zm1.84-3.22l.84-.1c.2-.06.37 0 .47 0 .1.04.16.1.26.2.06.1.11.27.16.43 0 .15 0 .26-.05.42-.05.1-.1.21-.21.26.1.06.21.1.32.21.1.1.1.27.15.43 0 .2 0 .42-.1.58a.48.48 0 01-.32.31c-.1.06-.26.06-.58.11l-.73.1-.21-2.95zm.47.42l.05.69.27-.06c.15 0 .26-.05.31-.05.05 0 .1-.05.16-.1.05-.06.05-.16.05-.27 0-.1-.05-.16-.05-.21l-.1-.1c-.06 0-.16 0-.43.05l-.26.05zm.1 1.21l.06.8.37-.06c.15 0 .26-.05.31-.05.05-.05.1-.05.1-.16.06-.05.06-.16.06-.26s-.05-.16-.05-.21c-.06-.06-.1-.1-.16-.1H24l-.31.04zm2 1.06l-.2-3 1.57-.17.05.53-1.15.1.05.7 1.05-.11.05.53-1.05.1.05.8 1.16-.11.05.53-1.63.1zm2.1-.21l-.15-3.01.42-.05.1 1.32.8-1.38.57-.05-.73 1.22.94 1.74-.52.05-.69-1.37-.31.53.05.9-.47.1zm2.27-.16l-.16-3h.42l.16 3h-.42zm.84-1.05l.42-.11c.05.37.21.58.48.53.1 0 .2-.06.31-.16.05-.1.1-.16.1-.32 0-.05 0-.1-.05-.16-.05-.05-.05-.1-.1-.1-.05-.05-.16-.05-.37-.1-.16-.06-.32-.11-.42-.17-.1-.05-.16-.15-.21-.26a1.03 1.03 0 01-.05-.8.54.54 0 01.26-.3c.1-.06.26-.11.42-.11.26 0 .42.05.58.2.16.17.2.38.26.64l-.42.05c0-.16-.05-.26-.16-.31a.4.4 0 00-.26-.1.4.4 0 00-.26.1c-.06.05-.1.1-.1.2 0 .11.04.17.1.22.05.05.2.1.42.16.2.05.37.1.47.2.1.06.16.17.21.33.05.1.1.26.1.47 0 .26-.05.48-.15.69-.1.2-.32.26-.63.31-.53-.1-.84-.42-.95-1.1zm2.79.79l-.05-2.48H33v-.53l1.68-.06v.53h-.63l.05 2.48-.42.06zM35 6.87c0-.37.06-.64.1-.9.11-.21.22-.42.38-.53.16-.1.31-.16.52-.16.32 0 .53.1.74.37.21.27.32.63.32 1.16 0 .48-.11.9-.27 1.16-.16.27-.42.37-.73.37a.85.85 0 01-.74-.37 1.74 1.74 0 01-.32-1.1zm.42-.06c0 .37.06.58.16.8.1.15.27.26.42.26.16 0 .32-.1.42-.26.1-.16.16-.43.16-.8 0-.37-.05-.58-.16-.79-.1-.16-.26-.26-.42-.26-.15 0-.31.1-.42.26-.1.16-.16.42-.16.8zm2.16 1.43V5.23H38l.84 2v-2h.42v3h-.42L38 6.29v1.96h-.42zm3.74-.05V5.18h.89c.21 0 .37.05.47.1.1.05.16.16.27.27.05.15.1.31.1.47 0 .21-.05.42-.16.58-.1.16-.2.21-.42.27.1.05.16.15.21.26.06.1.16.26.27.48l.26.58h-.53l-.31-.64c-.1-.2-.21-.37-.21-.42l-.1-.1c-.06 0-.11-.06-.22-.06h-.1v1.27l-.42-.05zm.42-1.75h.31c.21 0 .32 0 .37-.05.05 0 .1-.05.1-.1.06-.06.06-.16.06-.27 0-.1 0-.16-.05-.21-.06-.05-.06-.1-.16-.1h-.69v.73h.06zm1.89 1.75l.05-3.01 1.58.05v.53H44.1v.68h1.06v.53H44.1v.8h1.16v.52l-1.63-.1zm2.05-.9l.42-.05c.05.37.21.58.48.58.1 0 .2-.06.31-.1a.4.4 0 00.1-.27c0-.06 0-.1-.05-.16 0-.05-.05-.1-.1-.1-.05-.06-.16-.11-.37-.17-.16-.05-.32-.15-.42-.2-.1-.06-.16-.17-.21-.32-.05-.11-.05-.27-.05-.37a1 1 0 01.1-.43c.05-.1.16-.2.26-.31.11-.06.27-.1.43-.1.26 0 .42.1.57.26.16.15.21.37.21.68h-.42c0-.16-.05-.26-.1-.31a.4.4 0 00-.26-.11c-.11 0-.21 0-.27.05-.05.06-.1.1-.1.21 0 .1 0 .16.1.21.06.06.16.11.37.22.21.05.37.15.47.26.1.1.16.21.21.32.06.1.06.26.06.47 0 .27-.06.48-.21.64a.87.87 0 01-.63.26c-.58-.1-.85-.48-.9-1.16zm2.16 1.1l.1-3 .69.05c.26 0 .42.05.47.05.1.06.21.16.32.32.05.16.1.37.1.58 0 .21-.05.42-.1.53a.54.54 0 01-.27.32c-.1.05-.26.05-.52.05h-.27l-.05 1.1h-.47zm.52-2.47v.84h.53c.05 0 .1-.05.16-.16.05-.05.05-.16.05-.26s0-.16-.05-.27l-.16-.15c-.05 0-.16-.06-.37-.06l-.16.06zm1.74-.43h.42l-.05 1.64v.48c0 .15.05.26.1.31.06.05.16.1.27.1.1 0 .15 0 .26-.05.05-.05.1-.1.16-.2.05-.11.05-.27.05-.59l.05-1.63h.42l-.05 1.58c0 .42-.05.69-.1.84-.06.16-.16.32-.27.43a.89.89 0 01-.52.16.89.89 0 01-.53-.16c-.1-.1-.21-.21-.26-.43-.06-.15-.06-.47-.06-.95l.11-1.53zm2.37.1l.84.06c.2 0 .37.05.47.1.1.06.16.17.21.27.05.1.1.26.05.42 0 .16-.05.27-.1.37-.05.1-.16.21-.21.27.1.05.2.16.26.26.05.1.1.27.05.48 0 .2-.05.42-.15.52-.1.16-.21.22-.32.27H53l-.73-.05.2-2.96zm.36.54l-.05.68H53.36c.05 0 .16-.05.16-.1.05-.06.05-.1.05-.21 0-.11 0-.16-.05-.22-.05-.05-.05-.1-.1-.1-.06 0-.16-.05-.43-.05h-.16zm-.05 1.21l-.05.8.37.05h.31c.06 0 .1-.06.1-.11.06-.05.06-.16.06-.21 0-.1 0-.16-.05-.26-.05-.06-.05-.11-.16-.16-.05-.06-.16-.06-.37-.06l-.2-.05zm1.79 1.48l.16-2.96.42.06-.16 2.48 1.05.1-.05.53-1.42-.21zm1.95.21l.2-3 .43.04-.21 3.01-.42-.05zm1 .05l.26-2.95.42.05-.1 1.32 1-1.22.57.06-.9 1.05.7 1.9-.53-.05-.48-1.48-.37.48-.1.9-.47-.06zm4.15.53l-.47-.05-.1-.69-.85-.1-.2.63-.48-.05 1.1-2.9.48.05.52 3.11zM61 8.34l-.21-1.16-.37 1.06.58.1zm1.05.37h.42c0 .37.16.59.42.64.1 0 .21 0 .32-.05.1-.06.1-.16.15-.27v-.16c0-.05-.05-.1-.1-.16-.05-.05-.16-.1-.37-.2-.16-.11-.31-.17-.37-.27-.05-.1-.16-.21-.16-.32-.05-.1-.05-.26-.05-.42a.6.6 0 01.16-.42c.05-.1.16-.21.32-.27.1-.05.26-.05.42-.05.26.05.42.16.52.32.1.16.16.42.16.68l-.42-.05a.77.77 0 00-.1-.37c-.06-.05-.16-.1-.27-.16-.1 0-.2 0-.26.06-.05.05-.1.1-.1.2 0 .11 0 .17.05.22.05.05.15.16.36.2.21.11.37.22.42.33.11.1.16.2.22.31.05.16.05.27.05.48-.05.26-.1.47-.27.63-.15.16-.36.21-.68.16-.63 0-.84-.37-.84-1.06zm2.1 1.32l.37-2.95.42.05-.37 2.96-.42-.06z"/>
        <path fill="url(#paint7_radial)" d="M23.43 14.2l-.68.06-.37-.8-1.2.17-.17.9-.63.1.69-3.9.63-.11 1.73 3.59zm-1.36-1.37l-.64-1.32-.2 1.43.84-.1zm1.47-2.48l1.15-.1c.27-.06.53 0 .69.05.16.05.31.16.42.26.16.16.26.32.37.58.1.21.16.53.2.9.06.32.06.63 0 .85-.04.26-.1.47-.2.58-.1.16-.21.26-.37.37-.16.1-.37.16-.58.16l-1.26.1-.42-3.75zm.73.58l.27 2.48.47-.05c.21 0 .37-.05.42-.1.1-.06.16-.11.21-.22.05-.1.1-.2.1-.37v-.63c-.05-.26-.05-.47-.1-.63a.85.85 0 00-.2-.37c-.11-.1-.22-.16-.32-.16h-.53l-.32.05zm3 2.75l-.26-3.75.63-.05.21 3.11 1.53-.1.05.63-2.16.16zm2.84-.21l-.26-3.8.63-.06.26 3.8-.63.06zm2.26-.1l-.1-1.6L31 9.68l.73-.06.8 1.48.62-1.53.74-.05-1 2.27.1 1.58h-.63zm4.74-.22h-.69l-.31-.84-1.21.05-.21.84H34l1.06-3.8h.68l1.37 3.75zm-1.21-1.48l-.48-1.37-.36 1.42.84-.05zm4.57 1.43l-1.1-3.8h.68l.8 2.8.73-2.8h.68l-1.1 3.8h-.69zm4.8 0h-.7l-.26-.85h-1.2l-.27.85h-.68l1.2-3.8h.7l1.2 3.8zm-1.17-1.53l-.42-1.43-.42 1.43h.84zm1.48 1.58v-.69l1.73-2.37-1.42-.06V9.4l2.26.1v.59l-1.78 2.48 1.73.05v.64l-2.52-.11zm3.1.1l.16-3.8h.63l-.16 3.8h-.63zm1.47.06l.27-3.8 1.31.1c.32 0 .58.05.74.16.15.05.26.21.31.37.1.16.1.37.1.63 0 .32-.1.53-.26.69a1.2 1.2 0 01-.63.32l.32.31c.1.11.2.32.31.64l.32.74-.74-.06-.36-.84a3.9 3.9 0 00-.32-.58c-.05-.05-.1-.16-.16-.16-.05-.05-.16-.05-.31-.05h-.1l-.11 1.58-.69-.05zm.8-2.11l.46.05h.53c.05 0 .16-.05.21-.16.05-.05.1-.16.1-.32 0-.1 0-.2-.05-.31l-.15-.16c-.06 0-.21-.05-.53-.05l-.47-.06-.1 1zm2.57 2.37l.26-3.75.63.06-.2 3.11 1.52.1-.05.64-2.16-.16zm2.84.27l.37-3.75.63.05-.37 3.75-.63-.05zm3.05-1l.05-.64 1.32.16-.16 1.48a1.2 1.2 0 01-.63.31c-.27.1-.53.1-.8.1a1.78 1.78 0 01-.78-.3 1.5 1.5 0 01-.47-.75 3.1 3.1 0 01.26-2.11 1.37 1.37 0 011.42-.69c.37.06.63.16.84.37.21.21.32.53.32.9l-.63.05c0-.2-.1-.37-.21-.47-.11-.1-.27-.21-.43-.21-.26-.06-.47.05-.68.2-.21.22-.31.48-.37.9-.05.48 0 .8.16 1.06.1.21.32.37.58.37.1 0 .26 0 .37-.05.16-.05.26-.1.37-.21l.05-.48h-.58zm1.95 1.68l.57-3.75.64.1-.58 3.76-.63-.1z"/>
        <path fill="#92AAFF" d="M60.46 65.44a36.79 36.79 0 01-4.2 5.17c-2.32-2.11-3.43-5.28-3.58-12.73-1.21-11.3-4-15.31-8.2-20.22 6.15 5.49 10.2 9.6 11.83 18.85.36 4.8 1.94 7.5 4.15 8.93z"/>
        <path fill="#92AAFF" d="M63.35 60.26a35.76 35.76 0 01-2.47 4.44c-2.73-2.06-3.26-4.6-3.89-8.67-.63-4.27-2.2-10.56-10.36-17.48 4.52 1.53 9.1 6.6 11.83 11.52 2.1 4.6 2.63 8.18 4.9 10.19z"/>
        <path fill="url(#paint8_radial)" d="M19.49 22.97l.63-.79 14.94-6.34c2.05-.05 4.15-.1 6.26-.1 2.1 0 4.15.05 6.2.16l14.94 6.33.63.8L46 16l18.52 10.88c-.05.1-.16.27-.2.37L45.62 16.58l16.94 13.2c-.11.11-.16.22-.27.38l-17.04-13 15.1 15.32-.32.32L44.8 17.64 57.73 34.8c-.1.1-.21.16-.37.27l-13.15-17 10.62 18.69c-.1.05-.26.16-.36.2L43.63 18.39l8.1 19.96c-.16.05-.26.1-.42.16L43 18.64l5.42 20.81c-.16.05-.27.05-.42.1l-5.68-20.7L45 40.2c-.16 0-.32.05-.42.05l-2.9-21.33-.1 21.54h-.42l-.1-21.54-2.9 21.33c-.16 0-.32-.05-.42-.05l2.52-21.34-5.68 20.76c-.15-.05-.26-.05-.42-.1l5.42-20.81-8.31 19.8c-.16-.05-.26-.1-.42-.16l8.1-19.96-10.78 18.59-.37-.21 10.62-18.7-13.15 17c-.1-.1-.2-.15-.36-.26l12.93-17.16-15.25 15.1-.31-.31 15.1-15.32-17.1 13.05c-.1-.1-.16-.22-.27-.37l16.94-13.2-18.67 10.66c-.05-.1-.16-.26-.21-.37L36.58 16l-17.1 6.97zm2.63-3.85c.1-.21.2-.42.37-.64l8.25-2.27c1.1-.1 2.21-.15 3.37-.26l-12 3.17zm26.35-3.17c1.16.05 2.26.16 3.37.26l8.25 2.27c.1.22.21.43.37.64l-12-3.17z"/>
        <path fill="#92AAFF" d="M26.33 70.61a40.08 40.08 0 01-4.21-5.17c2.15-1.43 3.73-4.12 4.15-8.93 1.63-9.24 5.68-13.36 11.84-18.85-4.21 4.9-7 8.97-8.2 20.22-.17 7.45-1.27 10.62-3.58 12.73z"/>
        <path fill="#92AAFF" d="M21.7 64.75c-.9-1.37-1.74-2.9-2.48-4.44 2.27-2 2.8-5.6 4.9-10.14 2.73-4.91 7.3-9.98 11.83-11.51-8.15 6.92-9.78 13.2-10.36 17.48-.63 3.96-1.16 6.5-3.9 8.6z"/>
        <path fill="url(#paint9_radial)" d="M41.32 22.29c.47 0 .84.37.84.84 0 .37-.21.64-.53.8l.1.31v2.43c.32.16.48.53.59.95v1.85c-.06.37-.11.69-.32.9v.53c.32.1.58.31.79.52.95-.52 1.73-.79 2.37-.74 2.05 0 2.94 1.43 4.78 1.85 1.21.37 2.37.43 3.21.21a1.56 1.56 0 01-.21-.84c0-.9.74-1.7 1.68-1.7.9 0 1.69.75 1.69 1.7 0 .9-.48 1.48-1.16 1.85l4.84 11.93h2.05c-1.32 1.85-3.2 3.38-7.2 3.49-3.37 0-5.9-1.16-7.48-3.43h1.85l4.68-11.62c-1.37.26-3 0-3.84-.16-1.27-.16-3.05-.8-4.53-1.22-.84-.15-1.73.11-2.52.37-.16.48-.58.9-1.05 1.06v6.65c1.36.16 1.05 2.01 0 2.22.47.37.79.9.9 1.64v3.6a31.43 31.43 0 01-.7 5.8v1.32h9.37v.85h1.68v.58h2v.9H27.38v-.9h2v-.58h1.68v-.85h9.36v-1.32a31.43 31.43 0 01-.68-5.8v-3.6c.1-.74.42-1.27.9-1.64-1.06-.2-1.38-2.06 0-2.22v-6.65c-.48-.16-.9-.58-1.06-1.06a4.7 4.7 0 00-2.52-.37c-1.48.43-3.27 1.06-4.48 1.22-.84.21-2.47.42-3.84.16l4.69 11.62h1.84c-1.58 2.32-4.1 3.43-7.47 3.43-4-.1-5.9-1.64-7.2-3.49h2.04l4.84-11.93c-.68-.37-1.15-.95-1.15-1.85 0-.9.73-1.7 1.68-1.7.9 0 1.68.75 1.68 1.7 0 .32-.05.58-.2.84.83.22 1.99.11 3.2-.2 1.84-.48 2.79-1.86 4.79-1.86.68 0 1.47.27 2.36.74.21-.26.48-.42.8-.52v-.53a1.34 1.34 0 01-.32-.9v-1.85c.05-.47.26-.8.58-.95v-2.43l.1-.32a.81.81 0 01-.53-.79c0-.47.37-.84.85-.84zm17.67 23.4l-4.1-10.41v10.4h4.1zm-8.89 0l4.1-10.41v10.4h-4.1zm-26.51 0l4.1-10.41v10.4h-4.1zm8.89 0l-4.1-10.41v10.4h4.1z"/>
        <path fill="url(#paint10_radial)" d="M31.74 83.29c1.53-4.44-3.73-7.93-3.63-8.08.16-.11-3.2 4.27 3.63 8.08z"/>
        <path fill="url(#paint11_radial)" d="M30.32 83.23c-4.52 2.9-10.83-2.74-10.62-2.85.1-.05 4.47-1.64 10.62 2.85z"/>
        <path fill="url(#paint12_radial)" d="M50.84 83.29c-1.53-4.44 3.73-7.93 3.63-8.08-.16-.11 3.2 4.27-3.63 8.08z"/>
        <path fill="url(#paint13_radial)" d="M52.26 83.23c4.52 2.9 10.83-2.74 10.62-2.85-.1-.05-4.47-1.64-10.62 2.85z"/>
        <path fill="url(#paint14_linear)" d="M5.55 65.17c2.73 5.55 8.31 7.34 11.26 5.18v-.06c0 .06-5.05-1.69-6.05-2.53 0 .05 4.89 1.85 6.05 2.53-3.42-4.01-7.95-6.86-11.26-5.12z"/>
        <path fill="url(#paint15_linear)" d="M2.87 58.25c2.15 5.44 7.26 7.45 10.2 5.55v-.05c0 .05-4.63-1.9-5.47-2.75 0 .05 4.42 2.06 5.47 2.75-2.9-4.07-6.94-7.03-10.2-5.5z"/>
        <path fill="url(#paint16_linear)" d="M1.03 50.96c1.31 5.34 5.83 7.77 8.88 6.29v-.05c0 .05-4.05-2.27-4.78-3.17 0 .05 3.9 2.37 4.78 3.17-2.2-4.18-5.62-7.4-8.88-6.24z"/>
        <path fill="url(#paint17_linear)" d="M.5 44.15c.53 5.23 4.37 8.03 7.42 6.97v-.05c0 .05-3.48-2.64-4-3.54 0 .05 3.31 2.7 4 3.54C6.5 46.84 3.7 43.41.5 44.15z"/>
        <path fill="url(#paint18_linear)" d="M.29 37.6c0 5.02 3.31 7.98 6.2 7.19v-.06c-.05.06-3-2.8-3.41-3.64-.06.05 2.84 2.8 3.42 3.64-.9-4.17-3.16-7.66-6.21-7.13z"/>
        <path fill="url(#paint19_linear)" d="M1.18 31.05c-.79 4.81 1.84 7.98 4.63 7.6-.05.06-2.31-3-2.57-3.9-.06.05 2.15 3.01 2.57 3.9-.2-4.11-1.79-7.7-4.63-7.6z"/>
        <path fill="url(#paint20_linear)" d="M2.92 24.88c-1.37 4.54.63 7.81 3.26 7.76-.05.05-1.74-3.12-1.84-4.02-.05.06 1.58 3.12 1.84 4.02.32-4.02-.63-7.66-3.26-7.77z"/>
        <path fill="url(#paint21_linear)" d="M5.44 19.07c-1.89 4.22-.63 7.6 1.8 7.81-.06.05-1.11-3.22-1.06-4.06-.05.05 1 3.16 1.05 4.06.95-3.8.63-7.44-1.79-7.81z"/>
        <path fill="url(#paint22_linear)" d="M8.6 13.52c-2.37 3.9-1.74 7.29.42 7.76-.05 0-.53-3.22-.37-4.06-.05 0 .42 3.17.37 4.06 1.47-3.54 1.74-7.13-.42-7.76z"/>
        <path fill="url(#paint23_linear)" d="M18.86 59.73c1.78 4.12 1.26 8.61-1.9 10.56h-.05c-.05-.05.47-4.8.53-5.8-.06-.06-.95 4.48-.53 5.8-3-4.64-1.68-9.66 1.95-10.56z"/>
        <path fill="url(#paint24_linear)" d="M15.86 53.71c1.42 4.07.52 8.34-2.63 10.03h-.05c-.06-.05.84-4.59 1-5.54-.06-.05-1.27 4.28-1 5.54-2.42-4.59-.85-9.34 2.68-10.03z"/>
        <path fill="url(#paint25_linear)" d="M13.8 47.85c.85 4.07-.57 8.03-3.73 9.3h-.05c-.05-.06 1.37-4.28 1.63-5.18-.05-.05-1.74 3.96-1.63 5.17-1.68-4.6.37-8.92 3.79-9.3z"/>
        <path fill="url(#paint26_linear)" d="M12.8 42.2c.17 4.01-1.68 7.6-4.83 8.45-.05-.06 1.95-3.91 2.31-4.7-.05-.06-2.2 3.54-2.31 4.7C7.02 46 9.6 42.09 12.8 42.2z"/>
        <path fill="url(#paint27_linear)" d="M11.91 36.92c-.15 3.9-2.2 7.23-5.26 7.81-.05-.05 2.16-3.59 2.53-4.38-.05-.05-2.37 3.27-2.53 4.38-.42-4.49 2.32-8.08 5.26-7.81z"/>
        <path fill="url(#paint28_linear)" d="M11.97 31.8c-.74 3.74-3.16 6.7-6.05 6.86-.06-.05 2.52-3.17 3-3.9 0-.06-2.69 2.84-3 3.9.31-4.28 3.36-7.45 6.05-6.87z"/>
        <path fill="url(#paint29_linear)" d="M12.76 26.56c-1.21 3.6-3.84 6.18-6.47 6.08 0-.05 2.73-2.8 3.3-3.43 0-.06-2.83 2.48-3.3 3.43.84-4.12 4.1-6.92 6.47-6.08z"/>
        <path fill="url(#paint30_linear)" d="M14.23 21.7c-1.69 3.39-4.42 5.6-6.84 5.18 0-.05 2.95-2.43 3.52-3 0-.06-2.94 2.1-3.52 3 1.37-3.8 4.73-6.23 6.84-5.17z"/>
        <path fill="url(#paint31_linear)" d="M16.23 16.95c-2.05 3.17-4.95 5.07-7.05 4.39 0-.06 3.05-2.06 3.68-2.54 0-.05-3.05 1.74-3.68 2.54 1.84-3.6 5.31-5.6 7.05-4.39z"/>
        <path fill="url(#paint32_linear)" d="M16.65 10.56c-.95 3.65-3.05 6.34-5.31 6.4l2.68-3.55s-2.32 2.65-2.68 3.54c.57-3.96 3.2-6.97 5.3-6.39z"/>
        <path fill="url(#paint33_linear)" d="M77.03 65.17c-2.74 5.55-8.31 7.34-11.26 5.18v-.06c0 .06 5.05-1.69 6.05-2.53 0 .05-4.89 1.85-6.05 2.53 3.42-4.01 7.95-6.86 11.26-5.12z"/>
        <path fill="url(#paint34_linear)" d="M79.71 58.25c-2.15 5.44-7.26 7.45-10.2 5.55v-.05c0 .05 4.63-1.9 5.47-2.75 0 .05-4.42 2.06-5.47 2.75 2.9-4.07 6.94-7.03 10.2-5.5z"/>
        <path fill="url(#paint35_linear)" d="M81.55 50.96c-1.31 5.34-5.84 7.77-8.89 6.29v-.05c0 .05 4.05-2.27 4.8-3.17 0 .05-3.9 2.37-4.8 3.17 2.16-4.18 5.63-7.4 8.9-6.24z"/>
        <path fill="url(#paint36_linear)" d="M82.08 44.15c-.53 5.23-4.37 8.03-7.42 6.97v-.05c0 .05 3.47-2.64 4-3.54 0 .05-3.31 2.7-4 3.54 1.42-4.23 4.21-7.66 7.42-6.92z"/>
        <path fill="url(#paint37_linear)" d="M82.29 37.6c0 5.02-3.31 7.98-6.2 7.19v-.06c.05.06 3-2.8 3.41-3.64.05.05-2.84 2.8-3.42 3.64.9-4.17 3.16-7.66 6.21-7.13z"/>
        <path fill="url(#paint38_linear)" d="M81.4 31.05c.78 4.81-1.85 7.98-4.63 7.6.05.06 2.31-3 2.57-3.9.06.05-2.15 3.01-2.57 3.9.2-4.11 1.79-7.7 4.63-7.6z"/>
        <path fill="url(#paint39_linear)" d="M79.66 24.88c1.37 4.54-.63 7.81-3.26 7.76.05.05 1.73-3.12 1.84-4.02.05.06-1.58 3.12-1.84 4.02-.37-4.02.63-7.66 3.26-7.77z"/>
        <path fill="url(#paint40_linear)" d="M77.14 19.07c1.89 4.22.63 7.6-1.8 7.81.06.05 1.11-3.22 1.06-4.06.05.05-1 3.16-1.05 4.06-.95-3.8-.63-7.44 1.79-7.81z"/>
        <path fill="url(#paint41_linear)" d="M73.98 13.52c2.37 3.9 1.73 7.29-.42 7.76.05 0 .52-3.22.37-4.06.05 0-.42 3.17-.37 4.06-1.47-3.54-1.74-7.13.42-7.76z"/>
        <path fill="url(#paint42_linear)" d="M63.72 59.73c-1.79 4.12-1.26 8.61 1.9 10.56h.05c.05-.05-.47-4.8-.53-5.8.06-.06.95 4.48.53 5.8 3-4.64 1.68-9.66-1.95-10.56z"/>
        <path fill="url(#paint43_linear)" d="M66.72 53.71c-1.42 4.07-.53 8.34 2.63 10.03h.05c.06-.05-.84-4.59-1-5.54.06-.05 1.27 4.28 1 5.54 2.42-4.59.8-9.34-2.68-10.03z"/>
        <path fill="url(#paint44_linear)" d="M68.77 47.85c-.84 4.07.58 8.03 3.74 9.3h.05c.05-.06-1.37-4.28-1.63-5.18.05-.05 1.73 3.96 1.63 5.17 1.68-4.6-.42-8.92-3.79-9.3z"/>
        <path fill="url(#paint45_linear)" d="M69.77 42.2c-.16 4.01 1.68 7.6 4.84 8.45.05-.06-1.95-3.91-2.31-4.7.05-.06 2.2 3.54 2.31 4.7.9-4.65-1.63-8.56-4.84-8.45z"/>
        <path fill="url(#paint46_linear)" d="M70.67 36.92c.15 3.9 2.2 7.23 5.26 7.81.05-.05-2.16-3.59-2.53-4.38.05-.05 2.37 3.27 2.53 4.38.42-4.49-2.32-8.08-5.26-7.81z"/>
        <path fill="url(#paint47_linear)" d="M70.61 31.8c.74 3.74 3.16 6.7 6.05 6.86.05-.05-2.52-3.17-3-3.9 0-.06 2.69 2.84 3 3.9-.31-4.28-3.36-7.45-6.05-6.87z"/>
        <path fill="url(#paint48_linear)" d="M69.82 26.56c1.21 3.6 3.84 6.18 6.47 6.08 0-.05-2.73-2.8-3.31-3.43 0-.06 2.84 2.48 3.31 3.43-.84-4.12-4.1-6.92-6.47-6.08z"/>
        <path fill="url(#paint49_linear)" d="M68.35 21.7c1.68 3.39 4.42 5.6 6.84 5.18 0-.05-2.95-2.43-3.53-3 0-.06 2.95 2.1 3.53 3-1.37-3.8-4.73-6.23-6.84-5.17z"/>
        <path fill="url(#paint50_linear)" d="M66.35 16.95c2.05 3.17 4.95 5.07 7.05 4.39 0-.06-3.05-2.06-3.68-2.54 0-.05 3.05 1.74 3.68 2.54-1.84-3.6-5.31-5.6-7.05-4.39z"/>
        <path fill="url(#paint51_linear)" d="M65.93 10.56c.95 3.65 3.05 6.34 5.31 6.4l-2.68-3.55s2.32 2.65 2.68 3.54c-.57-3.96-3.26-6.97-5.3-6.39z"/>
        <path fill="url(#paint52_radial)" d="M20.17 73.15c-4.26-.16-6.05-.53-6.63-1.54.85 7.56 2.42 12.47 5.16 13.68a248.28 248.28 0 0145.18 0c2.74-1.21 4.31-6.18 5.15-13.68-.57 1-2.36 1.32-6.62 1.54a201.62 201.62 0 00-42.24 0z"/>
        <path fill="url(#paint53_radial)" d="M23.8 80.6h-1.16c-.05 0-.05 0-.1-.06l-.05-.05c0-.06 0-.06.05-.06l.05-.05v-.1c0-.27 0-.7-.05-1.11-.05-.48-.1-.8-.16-1 0-.06-.05-.11-.05-.17-.05-.05-.1-.1-.16-.1-.1 0-.16.05-.16.16V80.32c.06 0 .06.06.06.06.05.05.05.05.05.1 0 .06-.05.11-.1.11H20.9c-.05 0-.1-.05-.1-.1 0-.06 0-.06.05-.1 0 0 .05-.06.1-.06 0 0 0-.05.05-.1v-.17-.63-2.06-.32-.31c0-.1 0-.16-.05-.16l-.05-.05c0-.06.05-.06.1-.06H22.17l.05.06c0 .05 0 .05-.05.1l-.05.05v1.01c0 .05 0 .05.05.05s.05.05.1.05h.11c.05 0 .05-.05.1-.05.11-.05.22-.16.27-.26.05-.1.1-.21.16-.43.05-.15.1-.31.15-.42.11-.16.27-.26.43-.26.1 0 .15.05.26.1.05.06.1.16.1.27 0 .1-.05.16-.1.2a.4.4 0 01-.21.11c-.05 0-.05 0-.1-.05-.06 0-.11-.05-.11-.05-.06 0-.1 0-.1.05-.06.05-.06.1-.06.21 0 .06 0 .1.05.16 0 .05.05.16.1.21.17.32.27.53.32.69.1.32.16.74.16 1.16v.42c0 .1 0 .27.05.37 0 .06.06.1.06.1l.05.06.05.05c-.2.11-.2.16-.2.16zm2.47-4.07c-.05.05-.05.1-.1.1-.05.05-.05.16-.05.27v2.32c0 .53-.06.84-.11 1.06-.1.26-.42.42-.9.42-.41 0-.68-.1-.84-.37a1.4 1.4 0 01-.15-.74v-2.8-.1c0-.06 0-.11-.06-.11l-.05-.05c-.05 0-.05-.06-.05-.11s.05-.1.1-.1H25.06c.1 0 .1 0 .1.05s0 .05-.04.1l-.06.06s-.05.05-.05.1V79.43c0 .21 0 .32.05.42.06.16.16.21.32.21s.26-.1.31-.31c0-.1.06-.32.06-.64v-1.95V77v-.16-.16c0-.05-.06-.05-.06-.1 0 0-.05-.05-.1-.05-.05-.06-.05-.06-.05-.11s.05-.05.1-.05h.63c.06 0 .1 0 .1.05l-.1.1zm2.37.58c0 .1 0 .2-.05.26-.06.05-.06.05-.1.05-.11 0-.17-.05-.17-.1 0-.1-.05-.21-.05-.32-.05-.16-.1-.32-.2-.37-.06-.1-.17-.1-.22-.1-.05 0-.05 0-.1.05l-.06.05V80.17c0 .1 0 .21.06.26.05.06.1.06.2.06.06 0 .11-.06.16-.1.06-.06.06-.11.06-.22v-.05-.06c0-.05 0-.1.05-.2.05-.06.1-.11.16-.11.05 0 .1 0 .15.05.06.05.06.1.06.16 0 .16-.06.26-.21.42a.67.67 0 01-.53.21c-.31 0-.63-.2-.84-.58-.26-.42-.42-1-.42-1.74 0-.64.1-1.16.37-1.53.2-.37.42-.53.73-.53.06 0 .16 0 .21.05.06.05.1.05.16.05h.1c.06 0 .11 0 .11-.05.05-.05.05-.05.1-.05.11 0 .16 0 .16.05s0 .16.06.21c.05.1.05.21.05.32v.32zm2.9 3.43c0 .05-.06.1-.11.1h-1c-.05 0-.1 0-.1-.05s0-.05.05-.1c0 0 .05-.06.05-.1v-1.54c0-.16 0-.32-.05-.37-.06-.05-.11-.1-.16-.1-.1 0-.16 0-.16.05s-.05.1-.05.16v1.69c0 .05 0 .1.05.15l.05.06s.06.05.06.1c0 .06-.06.1-.11.1h-1c-.05 0-.1 0-.1-.04 0-.06 0-.11.05-.11s.05-.1.05-.21v-.85-.58-.95-1.16c0-.05 0-.1-.05-.16 0 0-.05 0-.05-.05v-.05c0-.06.05-.06.1-.06h1.05c.06 0 .1 0 .1.06 0 0 0 .05-.04.05l-.06.05s0 .05-.05.05v1.27c0 .05 0 .1.05.16 0 .05.06.05.06.05h.1c.05 0 .1 0 .16-.05.05-.05.05-.1.05-.16V76.8v-.16-.05l-.05-.05-.05-.06c0-.05.05-.05.1-.05h1c.05 0 .1 0 .1.05 0 .06 0 .06-.05.1-.05 0-.05.06-.05.11v3.6c0 .1 0 .15.05.15-.05 0 0 .06 0 .11zm10.67 0c0 .05 0 .05-.05.05 0 0-.06.06-.1.06h-1.11-.1c-.11 0-.17-.06-.17-.11s.06-.1.11-.1.1-.06.1-.06c.06-.05.06-.05.06-.1v-.11c0-.16-.1-.26-.21-.32-.1-.05-.16-.05-.27-.05a.48.48 0 00-.36.16c-.06.05-.06.16-.06.26s0 .16.06.21c0 .06.05.06.1.06s.05.05.05.1v.06s-.05.05-.1.05h-.68c-.06 0-.11-.05-.11-.1 0-.06.05-.11.1-.11.06 0 .11-.06.11-.1 0-.06.05-.11.05-.22 0-.1.06-.21.06-.32.05-.53.15-.95.2-1.32.06-.26.11-.53.22-.79.1-.32.1-.47.1-.47 0-.11.05-.22.05-.27 0-.05 0-.1-.05-.16 0-.05-.05-.05-.1-.1-.06-.06-.1-.06-.1-.16 0-.05 0-.05.04-.1.06 0 .06-.06.1-.06h.48s.1 0 .21-.05h.27c.05 0 .1 0 .15.05.06 0 .06.05.1.16a21.9 21.9 0 01.53 3.27c0 .21.06.32.06.37 0 .1.05.21.1.27l.05.05c.11-.1.11-.05.11 0zm-1.37-1.27v-.2c0-.06-.05-.27-.1-.54 0-.1-.06-.16-.06-.2V78v-.11c0-.05-.05-.05-.1-.05-.1 0-.21.2-.32.63-.05.32-.1.63-.1.8 0 .15.05.2.1.26.06.05.1.05.21.05h.11c.1 0 .21-.05.21-.1.05-.06.05-.17.05-.22zm4.32-.84c0 .31 0 .63-.06.84-.05.37-.2.64-.42.9-.16.21-.31.32-.47.42-.16.06-.32.1-.53.1h-1.1c-.05 0-.05 0-.1-.04-.06 0-.06-.06-.06-.06s0-.05.05-.05l.06-.05c.05 0 .05-.06.05-.1 0-.06 0-.06.05-.11v-.11-.26V76.84v-.16c0-.05 0-.05-.05-.1-.05 0-.05-.05-.05-.1 0-.06 0-.06.05-.06h1.31c.1 0 .16 0 .27.05.1 0 .15.06.26.1.31.17.58.48.68.9 0 .22.06.53.06.96zM44 79.1v-1.48-.58c0-.1 0-.2-.05-.26 0-.05-.06-.16-.1-.16-.06-.05-.11-.05-.17-.05-.05 0-.1 0-.1.05-.05.05-.05.1-.05.16v.16c0 .05.05.16.05.26V80.22c0 .1 0 .16.05.16s.05.05.1.05c.11 0 .16-.05.22-.15 0-.06.05-.11.05-.22 0-.1 0-.2.05-.31v-.43l-.05-.2zm4.15-.63c0 .48-.05.84-.1 1.16-.1.37-.26.64-.53.85a1 1 0 01-1.15.05 1.68 1.68 0 01-.58-.63 3.72 3.72 0 01-.27-1.48c0-.64.1-1.11.37-1.48.21-.37.53-.58.95-.58.16 0 .31.05.47.1.16.06.27.16.42.27.21.2.32.53.42.9-.05.26 0 .52 0 .84zm-1.05 1.85c0-.05 0-.1-.05-.16 0-.05-.05-.1-.05-.1 0-.06-.06-.22-.06-.43v-2.59c0-.2 0-.31-.05-.42-.05-.05-.1-.1-.2-.1-.06 0-.11 0-.17.05-.05.05-.05.1-.05.1 0 .06.05.11.05.16v3.12c0 .16.06.26.1.37.06.1.17.16.27.16.05 0 .1 0 .16-.06.05-.05.05-.05.05-.1zm3.42-.53v.1c0 .06 0 .11-.05.16 0 .06-.05.16-.05.27v.37s-.06.05-.11.05-.1 0-.16-.05c-.05 0-.05-.05-.1-.05-.06 0-.16-.06-.27-.06H48.58c-.11 0-.11-.05-.11-.1 0-.06 0-.06.05-.06 0 0 .05-.05.1-.05 0-.05.06-.1.06-.26v-2.49-.42-.42c0-.1 0-.16-.05-.16l-.06-.05c-.05 0-.05-.05-.05-.05 0-.06.05-.06.1-.06h1.11c.05 0 .1.06.1.1 0 .06 0 .06-.05.11 0 0-.05 0-.05.06V80.33c0 .1 0 .16.05.21.06.05.1.05.1.05.06 0 .11 0 .22-.05.1-.05.16-.21.16-.32 0-.1.05-.16.1-.2.06-.06.1-.11.16-.11-.05-.22 0-.16 0-.11zm2.9.74c0 .05 0 .05-.06.05 0 0-.05.06-.1.06h-1.1-.11c-.1 0-.16-.06-.16-.11s.05-.1.1-.1c.06 0 .1-.06.1-.06.06-.05.06-.05.06-.1v-.11c0-.16-.1-.26-.2-.32-.11-.05-.17-.05-.27-.05a.48.48 0 00-.37.16c-.05.05-.05.16-.05.26s0 .16.05.21c0 .06.05.06.1.06.06 0 .06.05.06.1v.06s-.06.05-.1.05H50.67c-.05 0-.1-.05-.1-.1 0-.06.05-.11.1-.11s.1-.06.1-.1c0-.06.06-.11.06-.22 0-.1.05-.21.05-.32.05-.53.16-.95.2-1.32.06-.26.11-.53.22-.79.1-.32.1-.47.1-.47 0-.11.06-.22.06-.27 0-.05 0-.1-.06-.16 0-.05-.05-.05-.1-.1-.05-.06-.1-.06-.1-.16 0-.05 0-.05.05-.1.05 0 .05-.06.1-.06h.48s.1 0 .2-.05h.27c.05 0 .1 0 .16.05.05 0 .05.05.1.16a21.9 21.9 0 01.53 3.27c0 .21.05.32.05.37 0 .1.05.21.1.27l.06.05c.05-.1.1-.05.1 0zm-1.37-1.27v-.2c0-.06-.06-.27-.1-.54 0-.1-.06-.16-.06-.2V78v-.11c0-.05-.05-.05-.1-.05-.11 0-.22.2-.32.63-.06.32-.1.63-.1.8 0 .15.04.2.1.26.05.05.1.05.2.05h.11c.1 0 .21-.05.21-.1.06-.06.06-.17.06-.22zm3.68-2.22v.11s-.05.05-.1.05c-.06 0-.17 0-.17-.05-.05-.05-.05-.1-.05-.16V76.8c0-.05 0-.1-.05-.1-.05-.06-.05-.06-.1-.06-.06 0-.06 0-.11.05 0 0-.05.06-.05.11V80.38c0 .05.05.05.1.1.05.06.05.06.05.11 0 .06-.05.1-.15.1H54c-.06 0-.11-.04-.11-.1 0-.05 0-.1.05-.1 0 0 .05 0 .05-.06l.05-.05V77.9v-.62c0-.22 0-.37.06-.48v-.05c0-.06 0-.1-.06-.1 0 0-.05-.06-.1-.06s-.1 0-.1.05c-.06.05-.06.1-.06.16V77c0 .1-.1.16-.2.16-.06 0-.11 0-.11-.05 0 0-.06-.06-.06-.1 0-.06 0-.17.06-.27.05-.1.05-.21.05-.27v-.1s.05-.06.1-.06h.1s.06 0 .11.06c.06 0 .1.05.16.05h1c.05 0 .1 0 .16-.05h.2c.11 0 .17.05.17.16l.05.31c0 .06 0 .1.05.16.1-.05.1 0 .1.05z"/>
        <path fill="url(#paint54_radial)" d="M58.62 78.43c0 .31 0 .63-.05.84-.05.37-.21.64-.42.9-.16.21-.32.32-.48.42-.15.06-.31.1-.52.1h-1.1c-.06 0-.06 0-.11-.04-.05 0-.05-.06-.05-.06s0-.05.05-.05l.05-.05c.05 0 .05-.06.05-.1 0-.06 0-.06.06-.11v-.11-.26V76.84v-.16c0-.05 0-.05-.06-.1-.05 0-.05-.05-.05-.1 0-.06 0-.06.05-.06h1.32c.1 0 .16 0 .26.05.1 0 .16.06.26.1.32.17.58.48.69.9.05.22.05.53.05.96zm-1.1.68v-1.47-.59c0-.1 0-.2-.06-.26 0-.05-.05-.16-.1-.16-.05-.05-.1-.05-.16-.05-.05 0-.1 0-.1.05-.06.05-.06.1-.06.16v.16c0 .05.06.16.06.26V80.22c0 .1 0 .16.05.16s.05.05.1.05c.1 0 .16-.05.21-.15 0-.06.06-.11.06-.22 0-.1 0-.2.05-.31v-.42l-.05-.22zm4.15 1.43c0 .05 0 .05-.05.05 0 0-.05.06-.1.06H60.4h-.1c-.11 0-.16-.06-.16-.11s.05-.1.1-.1.1-.06.1-.06c.06-.05.06-.05.06-.1v-.11c0-.16-.1-.26-.21-.32-.1-.05-.16-.05-.26-.05a.48.48 0 00-.37.16c-.06.05-.06.16-.06.26s0 .16.06.21c0 .06.05.06.1.06.06 0 .06.05.06.1v.06s-.06.05-.11.05h-.68c-.06 0-.1-.05-.1-.1 0-.06.04-.11.1-.11.05 0 .1-.06.1-.1 0-.06.05-.11.05-.22 0-.1.06-.21.06-.32.05-.52.15-.95.2-1.32.06-.26.11-.53.22-.79.1-.32.1-.47.1-.47 0-.11.06-.22.06-.27 0-.05 0-.1-.06-.16 0-.05-.05-.05-.1-.1-.06-.06-.1-.06-.1-.16 0-.05 0-.05.04-.1.06 0 .06-.06.11-.06h.47s.1 0 .21-.05h.27c.05 0 .1 0 .15.05.06 0 .06.05.11.16a21.9 21.9 0 01.53 3.27c0 .21.05.32.05.37 0 .1.05.21.1.27l.06.05c.05-.1.1-.05.1 0zm-1.37-1.27v-.2c0-.06-.05-.27-.1-.54 0-.1-.05-.16-.05-.2V78v-.11c0-.05-.06-.05-.1-.05-.11 0-.22.2-.32.63-.06.32-.11.63-.11.8 0 .15.05.2.1.26.06.05.11.05.22.05h.1c.1 0 .21-.05.21-.1.05-.06.05-.16.05-.22zM38 77.95h-4.94v-.26H38v.26z"/>
    </g>
    <defs>
        <linearGradient id="paint14_linear" x1="6.33" x2="16.09" y1="68.92" y2="66.87" gradientUnits="userSpaceOnUse">
            <stop stop-color="#FCD550"/>
            <stop offset=".17" stop-color="#FCD550"/>
            <stop offset=".38" stop-color="#FFFF93"/>
            <stop offset=".51" stop-color="#FCD550"/>
            <stop offset=".64" stop-color="#EDC44B"/>
            <stop offset=".91" stop-color="#DCB444"/>
            <stop offset="1" stop-color="#FCD550"/>
        </linearGradient>
        <linearGradient id="paint15_linear" x1="4.03" x2="11.94" y1="62.3" y2="59.91" gradientUnits="userSpaceOnUse">
            <stop stop-color="#FCD550"/>
            <stop offset=".17" stop-color="#FCD550"/>
            <stop offset=".38" stop-color="#FFFF93"/>
            <stop offset=".51" stop-color="#FCD550"/>
            <stop offset=".64" stop-color="#EDC44B"/>
            <stop offset=".91" stop-color="#DCB444"/>
            <stop offset="1" stop-color="#FCD550"/>
        </linearGradient>
        <linearGradient id="paint16_linear" x1="2.41" x2="8.5" y1="55.18" y2="53.08" gradientUnits="userSpaceOnUse">
            <stop stop-color="#FCD550"/>
            <stop offset=".17" stop-color="#FCD550"/>
            <stop offset=".38" stop-color="#FFFF93"/>
            <stop offset=".51" stop-color="#FCD550"/>
            <stop offset=".64" stop-color="#EDC44B"/>
            <stop offset=".91" stop-color="#DCB444"/>
            <stop offset="1" stop-color="#FCD550"/>
        </linearGradient>
        <linearGradient id="paint17_linear" x1="1.68" x2="6.44" y1="48.58" y2="46.84" gradientUnits="userSpaceOnUse">
            <stop stop-color="#FCD550"/>
            <stop offset=".17" stop-color="#FCD550"/>
            <stop offset=".38" stop-color="#FFFF93"/>
            <stop offset=".51" stop-color="#FCD550"/>
            <stop offset=".64" stop-color="#EDC44B"/>
            <stop offset=".91" stop-color="#DCB444"/>
            <stop offset="1" stop-color="#FCD550"/>
        </linearGradient>
        <linearGradient id="paint18_linear" x1="1.32" x2="5.01" y1="42.1" y2="40.46" gradientUnits="userSpaceOnUse">
            <stop stop-color="#FCD550"/>
            <stop offset=".17" stop-color="#FCD550"/>
            <stop offset=".38" stop-color="#FFFF93"/>
            <stop offset=".51" stop-color="#FCD550"/>
            <stop offset=".64" stop-color="#EDC44B"/>
            <stop offset=".91" stop-color="#DCB444"/>
            <stop offset="1" stop-color="#FCD550"/>
        </linearGradient>
        <linearGradient id="paint19_linear" x1="1.52" x2="4.97" y1="35.75" y2="34.22" gradientUnits="userSpaceOnUse">
            <stop stop-color="#FCD550"/>
            <stop offset=".17" stop-color="#FCD550"/>
            <stop offset=".38" stop-color="#FFFF93"/>
            <stop offset=".51" stop-color="#FCD550"/>
            <stop offset=".64" stop-color="#EDC44B"/>
            <stop offset=".91" stop-color="#DCB444"/>
            <stop offset="1" stop-color="#FCD550"/>
        </linearGradient>
        <linearGradient id="paint20_linear" x1="2.61" x2="6.08" y1="29.67" y2="27.98" gradientUnits="userSpaceOnUse">
            <stop stop-color="#FCD550"/>
            <stop offset=".17" stop-color="#FCD550"/>
            <stop offset=".38" stop-color="#FFFF93"/>
            <stop offset=".51" stop-color="#FCD550"/>
            <stop offset=".64" stop-color="#EDC44B"/>
            <stop offset=".91" stop-color="#DCB444"/>
            <stop offset="1" stop-color="#FCD550"/>
        </linearGradient>
        <linearGradient id="paint21_linear" x1="4.36" x2="8.05" y1="24" y2="22.1" gradientUnits="userSpaceOnUse">
            <stop stop-color="#FCD550"/>
            <stop offset=".17" stop-color="#FCD550"/>
            <stop offset=".38" stop-color="#FFFF93"/>
            <stop offset=".51" stop-color="#FCD550"/>
            <stop offset=".64" stop-color="#EDC44B"/>
            <stop offset=".91" stop-color="#DCB444"/>
            <stop offset="1" stop-color="#FCD550"/>
        </linearGradient>
        <linearGradient id="paint22_linear" x1="6.66" x2="10.79" y1="18.6" y2="16.36" gradientUnits="userSpaceOnUse">
            <stop stop-color="#FCD550"/>
            <stop offset=".17" stop-color="#FCD550"/>
            <stop offset=".38" stop-color="#FFFF93"/>
            <stop offset=".51" stop-color="#FCD550"/>
            <stop offset=".64" stop-color="#EDC44B"/>
            <stop offset=".91" stop-color="#DCB444"/>
            <stop offset="1" stop-color="#FCD550"/>
        </linearGradient>
        <linearGradient id="paint23_linear" x1="15.19" x2="20.15" y1="65.59" y2="64.55" gradientUnits="userSpaceOnUse">
            <stop stop-color="#FCD550"/>
            <stop offset=".17" stop-color="#FCD550"/>
            <stop offset=".38" stop-color="#FFFF93"/>
            <stop offset=".51" stop-color="#FCD550"/>
            <stop offset=".64" stop-color="#EDC44B"/>
            <stop offset=".91" stop-color="#DCB444"/>
            <stop offset="1" stop-color="#FCD550"/>
        </linearGradient>
        <linearGradient id="paint24_linear" x1="11.72" x2="17.15" y1="59.58" y2="57.93" gradientUnits="userSpaceOnUse">
            <stop stop-color="#FCD550"/>
            <stop offset=".17" stop-color="#FCD550"/>
            <stop offset=".38" stop-color="#FFFF93"/>
            <stop offset=".51" stop-color="#FCD550"/>
            <stop offset=".64" stop-color="#EDC44B"/>
            <stop offset=".91" stop-color="#DCB444"/>
            <stop offset="1" stop-color="#FCD550"/>
        </linearGradient>
        <linearGradient id="paint25_linear" x1="8.76" x2="15.02" y1="53.57" y2="51.4" gradientUnits="userSpaceOnUse">
            <stop stop-color="#FCD550"/>
            <stop offset=".17" stop-color="#FCD550"/>
            <stop offset=".38" stop-color="#FFFF93"/>
            <stop offset=".51" stop-color="#FCD550"/>
            <stop offset=".64" stop-color="#EDC44B"/>
            <stop offset=".91" stop-color="#DCB444"/>
            <stop offset="1" stop-color="#FCD550"/>
        </linearGradient>
        <linearGradient id="paint26_linear" x1="6.74" x2="13.91" y1="47.62" y2="45.01" gradientUnits="userSpaceOnUse">
            <stop stop-color="#FCD550"/>
            <stop offset=".17" stop-color="#FCD550"/>
            <stop offset=".38" stop-color="#FFFF93"/>
            <stop offset=".51" stop-color="#FCD550"/>
            <stop offset=".64" stop-color="#EDC44B"/>
            <stop offset=".91" stop-color="#DCB444"/>
            <stop offset="1" stop-color="#FCD550"/>
        </linearGradient>
        <linearGradient id="paint27_linear" x1="5.5" x2="12.95" y1="42.33" y2="39.03" gradientUnits="userSpaceOnUse">
            <stop stop-color="#FCD550"/>
            <stop offset=".17" stop-color="#FCD550"/>
            <stop offset=".38" stop-color="#FFFF93"/>
            <stop offset=".51" stop-color="#FCD550"/>
            <stop offset=".64" stop-color="#EDC44B"/>
            <stop offset=".91" stop-color="#DCB444"/>
            <stop offset="1" stop-color="#FCD550"/>
        </linearGradient>
        <linearGradient id="paint28_linear" x1="5.04" x2="12.76" y1="36.81" y2="33.38" gradientUnits="userSpaceOnUse">
            <stop stop-color="#FCD550"/>
            <stop offset=".17" stop-color="#FCD550"/>
            <stop offset=".38" stop-color="#FFFF93"/>
            <stop offset=".51" stop-color="#FCD550"/>
            <stop offset=".64" stop-color="#EDC44B"/>
            <stop offset=".91" stop-color="#DCB444"/>
            <stop offset="1" stop-color="#FCD550"/>
        </linearGradient>
        <linearGradient id="paint29_linear" x1="5.66" x2="13.27" y1="31.29" y2="27.59" gradientUnits="userSpaceOnUse">
            <stop stop-color="#FCD550"/>
            <stop offset=".17" stop-color="#FCD550"/>
            <stop offset=".38" stop-color="#FFFF93"/>
            <stop offset=".51" stop-color="#FCD550"/>
            <stop offset=".64" stop-color="#EDC44B"/>
            <stop offset=".91" stop-color="#DCB444"/>
            <stop offset="1" stop-color="#FCD550"/>
        </linearGradient>
        <linearGradient id="paint30_linear" x1="6.95" x2="14.51" y1="26.12" y2="22.24" gradientUnits="userSpaceOnUse">
            <stop stop-color="#FCD550"/>
            <stop offset=".17" stop-color="#FCD550"/>
            <stop offset=".38" stop-color="#FFFF93"/>
            <stop offset=".51" stop-color="#FCD550"/>
            <stop offset=".64" stop-color="#EDC44B"/>
            <stop offset=".91" stop-color="#DCB444"/>
            <stop offset="1" stop-color="#FCD550"/>
        </linearGradient>
        <linearGradient id="paint31_linear" x1="8.94" x2="16.31" y1="21.04" y2="17.05" gradientUnits="userSpaceOnUse">
            <stop stop-color="#FCD550"/>
            <stop offset=".17" stop-color="#FCD550"/>
            <stop offset=".38" stop-color="#FFFF93"/>
            <stop offset=".51" stop-color="#FCD550"/>
            <stop offset=".64" stop-color="#EDC44B"/>
            <stop offset=".91" stop-color="#DCB444"/>
            <stop offset="1" stop-color="#FCD550"/>
        </linearGradient>
        <linearGradient id="paint32_linear" x1="10.53" x2="17.29" y1="15.65" y2="11.67" gradientUnits="userSpaceOnUse">
            <stop stop-color="#FCD550"/>
            <stop offset=".17" stop-color="#FCD550"/>
            <stop offset=".38" stop-color="#FFFF93"/>
            <stop offset=".51" stop-color="#FCD550"/>
            <stop offset=".64" stop-color="#EDC44B"/>
            <stop offset=".91" stop-color="#DCB444"/>
            <stop offset="1" stop-color="#FCD550"/>
        </linearGradient>
        <linearGradient id="paint33_linear" x1="76.24" x2="66.48" y1="68.92" y2="66.87" gradientUnits="userSpaceOnUse">
            <stop stop-color="#FCD550"/>
            <stop offset=".17" stop-color="#FCD550"/>
            <stop offset=".38" stop-color="#FFFF93"/>
            <stop offset=".51" stop-color="#FCD550"/>
            <stop offset=".64" stop-color="#EDC44B"/>
            <stop offset=".91" stop-color="#DCB444"/>
            <stop offset="1" stop-color="#FCD550"/>
        </linearGradient>
        <linearGradient id="paint34_linear" x1="78.54" x2="70.63" y1="62.3" y2="59.91" gradientUnits="userSpaceOnUse">
            <stop stop-color="#FCD550"/>
            <stop offset=".17" stop-color="#FCD550"/>
            <stop offset=".38" stop-color="#FFFF93"/>
            <stop offset=".51" stop-color="#FCD550"/>
            <stop offset=".64" stop-color="#EDC44B"/>
            <stop offset=".91" stop-color="#DCB444"/>
            <stop offset="1" stop-color="#FCD550"/>
        </linearGradient>
        <linearGradient id="paint35_linear" x1="80.16" x2="74.07" y1="55.18" y2="53.08" gradientUnits="userSpaceOnUse">
            <stop stop-color="#FCD550"/>
            <stop offset=".17" stop-color="#FCD550"/>
            <stop offset=".38" stop-color="#FFFF93"/>
            <stop offset=".51" stop-color="#FCD550"/>
            <stop offset=".64" stop-color="#EDC44B"/>
            <stop offset=".91" stop-color="#DCB444"/>
            <stop offset="1" stop-color="#FCD550"/>
        </linearGradient>
        <linearGradient id="paint36_linear" x1="80.89" x2="76.13" y1="48.58" y2="46.84" gradientUnits="userSpaceOnUse">
            <stop stop-color="#FCD550"/>
            <stop offset=".17" stop-color="#FCD550"/>
            <stop offset=".38" stop-color="#FFFF93"/>
            <stop offset=".51" stop-color="#FCD550"/>
            <stop offset=".64" stop-color="#EDC44B"/>
            <stop offset=".91" stop-color="#DCB444"/>
            <stop offset="1" stop-color="#FCD550"/>
        </linearGradient>
        <linearGradient id="paint37_linear" x1="81.25" x2="77.56" y1="42.1" y2="40.46" gradientUnits="userSpaceOnUse">
            <stop stop-color="#FCD550"/>
            <stop offset=".17" stop-color="#FCD550"/>
            <stop offset=".38" stop-color="#FFFF93"/>
            <stop offset=".51" stop-color="#FCD550"/>
            <stop offset=".64" stop-color="#EDC44B"/>
            <stop offset=".91" stop-color="#DCB444"/>
            <stop offset="1" stop-color="#FCD550"/>
        </linearGradient>
        <linearGradient id="paint38_linear" x1="81.05" x2="77.6" y1="35.75" y2="34.22" gradientUnits="userSpaceOnUse">
            <stop stop-color="#FCD550"/>
            <stop offset=".17" stop-color="#FCD550"/>
            <stop offset=".38" stop-color="#FFFF93"/>
            <stop offset=".51" stop-color="#FCD550"/>
            <stop offset=".64" stop-color="#EDC44B"/>
            <stop offset=".91" stop-color="#DCB444"/>
            <stop offset="1" stop-color="#FCD550"/>
        </linearGradient>
        <linearGradient id="paint39_linear" x1="79.96" x2="76.49" y1="29.67" y2="27.98" gradientUnits="userSpaceOnUse">
            <stop stop-color="#FCD550"/>
            <stop offset=".17" stop-color="#FCD550"/>
            <stop offset=".38" stop-color="#FFFF93"/>
            <stop offset=".51" stop-color="#FCD550"/>
            <stop offset=".64" stop-color="#EDC44B"/>
            <stop offset=".91" stop-color="#DCB444"/>
            <stop offset="1" stop-color="#FCD550"/>
        </linearGradient>
        <linearGradient id="paint40_linear" x1="78.21" x2="74.52" y1="24" y2="22.1" gradientUnits="userSpaceOnUse">
            <stop stop-color="#FCD550"/>
            <stop offset=".17" stop-color="#FCD550"/>
            <stop offset=".38" stop-color="#FFFF93"/>
            <stop offset=".51" stop-color="#FCD550"/>
            <stop offset=".64" stop-color="#EDC44B"/>
            <stop offset=".91" stop-color="#DCB444"/>
            <stop offset="1" stop-color="#FCD550"/>
        </linearGradient>
        <linearGradient id="paint41_linear" x1="75.91" x2="71.78" y1="18.6" y2="16.36" gradientUnits="userSpaceOnUse">
            <stop stop-color="#FCD550"/>
            <stop offset=".17" stop-color="#FCD550"/>
            <stop offset=".38" stop-color="#FFFF93"/>
            <stop offset=".51" stop-color="#FCD550"/>
            <stop offset=".64" stop-color="#EDC44B"/>
            <stop offset=".91" stop-color="#DCB444"/>
            <stop offset="1" stop-color="#FCD550"/>
        </linearGradient>
        <linearGradient id="paint42_linear" x1="67.38" x2="62.42" y1="65.59" y2="64.55" gradientUnits="userSpaceOnUse">
            <stop stop-color="#FCD550"/>
            <stop offset=".17" stop-color="#FCD550"/>
            <stop offset=".38" stop-color="#FFFF93"/>
            <stop offset=".51" stop-color="#FCD550"/>
            <stop offset=".64" stop-color="#EDC44B"/>
            <stop offset=".91" stop-color="#DCB444"/>
            <stop offset="1" stop-color="#FCD550"/>
        </linearGradient>
        <linearGradient id="paint43_linear" x1="70.85" x2="65.42" y1="59.58" y2="57.93" gradientUnits="userSpaceOnUse">
            <stop stop-color="#FCD550"/>
            <stop offset=".17" stop-color="#FCD550"/>
            <stop offset=".38" stop-color="#FFFF93"/>
            <stop offset=".51" stop-color="#FCD550"/>
            <stop offset=".64" stop-color="#EDC44B"/>
            <stop offset=".91" stop-color="#DCB444"/>
            <stop offset="1" stop-color="#FCD550"/>
        </linearGradient>
        <linearGradient id="paint44_linear" x1="73.81" x2="67.54" y1="53.57" y2="51.4" gradientUnits="userSpaceOnUse">
            <stop stop-color="#FCD550"/>
            <stop offset=".17" stop-color="#FCD550"/>
            <stop offset=".38" stop-color="#FFFF93"/>
            <stop offset=".51" stop-color="#FCD550"/>
            <stop offset=".64" stop-color="#EDC44B"/>
            <stop offset=".91" stop-color="#DCB444"/>
            <stop offset="1" stop-color="#FCD550"/>
        </linearGradient>
        <linearGradient id="paint45_linear" x1="75.83" x2="68.66" y1="47.62" y2="45.01" gradientUnits="userSpaceOnUse">
            <stop stop-color="#FCD550"/>
            <stop offset=".17" stop-color="#FCD550"/>
            <stop offset=".38" stop-color="#FFFF93"/>
            <stop offset=".51" stop-color="#FCD550"/>
            <stop offset=".64" stop-color="#EDC44B"/>
            <stop offset=".91" stop-color="#DCB444"/>
            <stop offset="1" stop-color="#FCD550"/>
        </linearGradient>
        <linearGradient id="paint46_linear" x1="77.07" x2="69.62" y1="42.33" y2="39.03" gradientUnits="userSpaceOnUse">
            <stop stop-color="#FCD550"/>
            <stop offset=".17" stop-color="#FCD550"/>
            <stop offset=".38" stop-color="#FFFF93"/>
            <stop offset=".51" stop-color="#FCD550"/>
            <stop offset=".64" stop-color="#EDC44B"/>
            <stop offset=".91" stop-color="#DCB444"/>
            <stop offset="1" stop-color="#FCD550"/>
        </linearGradient>
        <linearGradient id="paint47_linear" x1="77.53" x2="69.81" y1="36.81" y2="33.38" gradientUnits="userSpaceOnUse">
            <stop stop-color="#FCD550"/>
            <stop offset=".17" stop-color="#FCD550"/>
            <stop offset=".38" stop-color="#FFFF93"/>
            <stop offset=".51" stop-color="#FCD550"/>
            <stop offset=".64" stop-color="#EDC44B"/>
            <stop offset=".91" stop-color="#DCB444"/>
            <stop offset="1" stop-color="#FCD550"/>
        </linearGradient>
        <linearGradient id="paint48_linear" x1="76.91" x2="69.3" y1="31.29" y2="27.59" gradientUnits="userSpaceOnUse">
            <stop stop-color="#FCD550"/>
            <stop offset=".17" stop-color="#FCD550"/>
            <stop offset=".38" stop-color="#FFFF93"/>
            <stop offset=".51" stop-color="#FCD550"/>
            <stop offset=".64" stop-color="#EDC44B"/>
            <stop offset=".91" stop-color="#DCB444"/>
            <stop offset="1" stop-color="#FCD550"/>
        </linearGradient>
        <linearGradient id="paint49_linear" x1="75.62" x2="68.06" y1="26.12" y2="22.24" gradientUnits="userSpaceOnUse">
            <stop stop-color="#FCD550"/>
            <stop offset=".17" stop-color="#FCD550"/>
            <stop offset=".38" stop-color="#FFFF93"/>
            <stop offset=".51" stop-color="#FCD550"/>
            <stop offset=".64" stop-color="#EDC44B"/>
            <stop offset=".91" stop-color="#DCB444"/>
            <stop offset="1" stop-color="#FCD550"/>
        </linearGradient>
        <linearGradient id="paint50_linear" x1="73.63" x2="66.26" y1="21.04" y2="17.05" gradientUnits="userSpaceOnUse">
            <stop stop-color="#FCD550"/>
            <stop offset=".17" stop-color="#FCD550"/>
            <stop offset=".38" stop-color="#FFFF93"/>
            <stop offset=".51" stop-color="#FCD550"/>
            <stop offset=".64" stop-color="#EDC44B"/>
            <stop offset=".91" stop-color="#DCB444"/>
            <stop offset="1" stop-color="#FCD550"/>
        </linearGradient>
        <linearGradient id="paint51_linear" x1="72.04" x2="65.28" y1="15.65" y2="11.67" gradientUnits="userSpaceOnUse">
            <stop stop-color="#FCD550"/>
            <stop offset=".17" stop-color="#FCD550"/>
            <stop offset=".38" stop-color="#FFFF93"/>
            <stop offset=".51" stop-color="#FCD550"/>
            <stop offset=".64" stop-color="#EDC44B"/>
            <stop offset=".91" stop-color="#DCB444"/>
            <stop offset="1" stop-color="#FCD550"/>
        </linearGradient>
        <radialGradient id="paint0_radial" cx="0" cy="0" r="1" gradientTransform="matrix(130.073 0 0 130.605 39.85 46)" gradientUnits="userSpaceOnUse">
            <stop stop-color="#FBF6A6"/>
            <stop offset="1" stop-color="#CAA835"/>
        </radialGradient>
        <radialGradient id="paint1_radial" cx="0" cy="0" r="1" gradientTransform="matrix(54.7482 0 0 54.9724 41.29 47.66)" gradientUnits="userSpaceOnUse">
            <stop stop-color="#FBF6A6"/>
            <stop offset="1" stop-color="#D7C265"/>
        </radialGradient>
        <radialGradient id="paint2_radial" cx="0" cy="0" r="1" gradientTransform="matrix(38.8755 0 0 39.0344 25.53 61.86)" gradientUnits="userSpaceOnUse">
            <stop stop-color="#F9EF3F"/>
            <stop offset="1" stop-color="#A6762E"/>
        </radialGradient>
        <radialGradient id="paint3_radial" cx="0" cy="0" r="1" gradientTransform="matrix(38.8755 0 0 39.0344 57.02 61.86)" gradientUnits="userSpaceOnUse">
            <stop stop-color="#F9EF3F"/>
            <stop offset="1" stop-color="#A6762E"/>
        </radialGradient>
        <radialGradient id="paint4_radial" cx="0" cy="0" r="1" gradientTransform="matrix(17.9837 0 0 18.0572 52.73 53.44)" gradientUnits="userSpaceOnUse">
            <stop stop-color="#FBF6A6"/>
            <stop offset="1" stop-color="#D7C265"/>
        </radialGradient>
        <radialGradient id="paint5_radial" cx="0" cy="0" r="1" gradientTransform="matrix(17.9837 0 0 18.0572 29.85 53.43)" gradientUnits="userSpaceOnUse">
            <stop stop-color="#FBF6A6"/>
            <stop offset="1" stop-color="#D7C265"/>
        </radialGradient>
        <radialGradient id="paint6_radial" cx="0" cy="0" r="1" gradientTransform="matrix(23.5842 0 0 23.6806 40.88 7.55)" gradientUnits="userSpaceOnUse">
            <stop stop-color="#FBF4CE"/>
            <stop offset=".99" stop-color="#FDE99E"/>
            <stop offset="1" stop-color="#FFDE6F"/>
        </radialGradient>
        <radialGradient id="paint7_radial" cx="0" cy="0" r="1" gradientTransform="matrix(22.0415 0 0 22.1323 41.04 11.85)" gradientUnits="userSpaceOnUse">
            <stop stop-color="#FBF4CE"/>
            <stop offset=".99" stop-color="#FDE99E"/>
            <stop offset="1" stop-color="#FFDE6F"/>
        </radialGradient>
        <radialGradient id="paint8_radial" cx="0" cy="0" r="1" gradientTransform="matrix(31.2607 0 0 31.3888 26.43 28.6)" gradientUnits="userSpaceOnUse">
            <stop stop-color="#F9F2C5"/>
            <stop offset="1" stop-color="#CFB575"/>
        </radialGradient>
        <radialGradient id="paint9_radial" cx="0" cy="0" r="1" gradientTransform="matrix(20.6551 0 0 20.7396 41.29 40.03)" gradientUnits="userSpaceOnUse">
            <stop stop-color="#FBF6A6"/>
            <stop offset="1" stop-color="#D7C265"/>
        </radialGradient>
        <radialGradient id="paint10_radial" cx="0" cy="0" r="1" gradientTransform="matrix(55.5129 0 0 55.7398 25.71 79.87)" gradientUnits="userSpaceOnUse">
            <stop stop-color="#F9EF3F"/>
            <stop offset="1" stop-color="#A6762E"/>
        </radialGradient>
        <radialGradient id="paint11_radial" cx="0" cy="0" r="1" gradientTransform="matrix(15.4777 0 0 15.5415 24.66 86.1)" gradientUnits="userSpaceOnUse">
            <stop stop-color="#F9EF3F"/>
            <stop offset="1" stop-color="#A6762E"/>
        </radialGradient>
        <radialGradient id="paint12_radial" cx="0" cy="0" r="1" gradientTransform="matrix(4.01426 0 0 4.03068 56.75 80.12)" gradientUnits="userSpaceOnUse">
            <stop stop-color="#F9EF3F"/>
            <stop offset="1" stop-color="#A6762E"/>
        </radialGradient>
        <radialGradient id="paint13_radial" cx="0" cy="0" r="1" gradientTransform="matrix(5.31622 0 0 5.33797 57.9 86.1)" gradientUnits="userSpaceOnUse">
            <stop stop-color="#F9EF3F"/>
            <stop offset="1" stop-color="#A6762E"/>
        </radialGradient>
        <radialGradient id="paint52_radial" cx="0" cy="0" r="1" gradientTransform="matrix(31.1387 0 0 31.2657 40.18 78.49)" gradientUnits="userSpaceOnUse">
            <stop stop-color="#FBF6A6"/>
            <stop offset="1" stop-color="#CAA835"/>
        </radialGradient>
        <radialGradient id="paint53_radial" cx="0" cy="0" r="1" gradientTransform="matrix(22.7477 0 0 22.8415 42.1 80.46)" gradientUnits="userSpaceOnUse">
            <stop stop-color="#F3C85D"/>
            <stop offset="1" stop-color="#A9915D"/>
        </radialGradient>
        <radialGradient id="paint54_radial" cx="0" cy="0" r="1" gradientTransform="matrix(20.7298 0 0 20.8152 42.1 80.46)" gradientUnits="userSpaceOnUse">
            <stop stop-color="#F3C85D"/>
            <stop offset="1" stop-color="#A9915D"/>
        </radialGradient>
        <clipPath id="clip0">
            <path fill="#fff" d="M0 0h82v92H0z" transform="translate(.29)"/>
        </clipPath>
    </defs>
</svg>